<mxfile host="app.diagrams.net" modified="2021-06-05T14:08:18.978Z" agent="5.0 (Macintosh; Intel Mac OS X 10_13_6) AppleWebKit/537.36 (KHTML, like Gecko) Chrome/91.0.4472.77 Safari/537.36" etag="d9IgDDA6QViTbxoW1kL5" version="14.7.6" type="github">
  <diagram id="C5RBs43oDa-KdzZeNtuy" name="Page-1">
    <mxGraphModel dx="894" dy="668" grid="0" gridSize="10" guides="1" tooltips="1" connect="1" arrows="1" fold="1" page="1" pageScale="1" pageWidth="4827" pageHeight="4869" background="#333333" math="0" shadow="0">
      <root>
        <mxCell id="WIyWlLk6GJQsqaUBKTNV-0" />
        <mxCell id="WIyWlLk6GJQsqaUBKTNV-1" parent="WIyWlLk6GJQsqaUBKTNV-0" />
        <mxCell id="zkfFHV4jXpPFQw0GAbJ--17" value="Dim" style="swimlane;fontStyle=0;align=center;verticalAlign=top;childLayout=stackLayout;horizontal=1;startSize=26;horizontalStack=0;resizeParent=1;resizeLast=0;collapsible=1;marginBottom=0;rounded=0;shadow=0;strokeWidth=1;fontColor=#FFFFFF;strokeColor=#FFFFFF;fillColor=none;" parent="WIyWlLk6GJQsqaUBKTNV-1" vertex="1">
          <mxGeometry x="355" y="566" width="160" height="193" as="geometry">
            <mxRectangle x="550" y="140" width="160" height="26" as="alternateBounds" />
          </mxGeometry>
        </mxCell>
        <mxCell id="zkfFHV4jXpPFQw0GAbJ--18" value="code: string" style="text;align=left;verticalAlign=top;spacingLeft=4;spacingRight=4;overflow=hidden;rotatable=0;points=[[0,0.5],[1,0.5]];portConstraint=eastwest;fontColor=#FFFFFF;" parent="zkfFHV4jXpPFQw0GAbJ--17" vertex="1">
          <mxGeometry y="26" width="160" height="26" as="geometry" />
        </mxCell>
        <mxCell id="zkfFHV4jXpPFQw0GAbJ--19" value="name: string" style="text;align=left;verticalAlign=top;spacingLeft=4;spacingRight=4;overflow=hidden;rotatable=0;points=[[0,0.5],[1,0.5]];portConstraint=eastwest;rounded=0;shadow=0;html=0;fontColor=#FFFFFF;" parent="zkfFHV4jXpPFQw0GAbJ--17" vertex="1">
          <mxGeometry y="52" width="160" height="26" as="geometry" />
        </mxCell>
        <mxCell id="zkfFHV4jXpPFQw0GAbJ--20" value="dimType: string" style="text;align=left;verticalAlign=top;spacingLeft=4;spacingRight=4;overflow=hidden;rotatable=0;points=[[0,0.5],[1,0.5]];portConstraint=eastwest;rounded=0;shadow=0;html=0;fontColor=#FFFFFF;" parent="zkfFHV4jXpPFQw0GAbJ--17" vertex="1">
          <mxGeometry y="78" width="160" height="26" as="geometry" />
        </mxCell>
        <mxCell id="zkfFHV4jXpPFQw0GAbJ--21" value="description: string" style="text;align=left;verticalAlign=top;spacingLeft=4;spacingRight=4;overflow=hidden;rotatable=0;points=[[0,0.5],[1,0.5]];portConstraint=eastwest;rounded=0;shadow=0;html=0;fontColor=#FFFFFF;" parent="zkfFHV4jXpPFQw0GAbJ--17" vertex="1">
          <mxGeometry y="104" width="160" height="26" as="geometry" />
        </mxCell>
        <mxCell id="zkfFHV4jXpPFQw0GAbJ--22" value="enumerable: boolean" style="text;align=left;verticalAlign=top;spacingLeft=4;spacingRight=4;overflow=hidden;rotatable=0;points=[[0,0.5],[1,0.5]];portConstraint=eastwest;rounded=0;shadow=0;html=0;fontColor=#FFFFFF;" parent="zkfFHV4jXpPFQw0GAbJ--17" vertex="1">
          <mxGeometry y="130" width="160" height="26" as="geometry" />
        </mxCell>
        <mxCell id="zkfFHV4jXpPFQw0GAbJ--23" value="" style="line;html=1;strokeWidth=1;align=left;verticalAlign=middle;spacingTop=-1;spacingLeft=3;spacingRight=3;rotatable=0;labelPosition=right;points=[];portConstraint=eastwest;fontColor=#FFFFFF;strokeColor=#FFFFFF;" parent="zkfFHV4jXpPFQw0GAbJ--17" vertex="1">
          <mxGeometry y="156" width="160" height="8" as="geometry" />
        </mxCell>
        <mxCell id="zkfFHV4jXpPFQw0GAbJ--25" value="set(): Dim" style="text;align=left;verticalAlign=top;spacingLeft=4;spacingRight=4;overflow=hidden;rotatable=0;points=[[0,0.5],[1,0.5]];portConstraint=eastwest;fontColor=#FFFFFF;" parent="zkfFHV4jXpPFQw0GAbJ--17" vertex="1">
          <mxGeometry y="164" width="160" height="26" as="geometry" />
        </mxCell>
        <mxCell id="EBYmS5xXXLun_0fUrUWN-65" style="edgeStyle=none;rounded=0;orthogonalLoop=1;jettySize=auto;html=1;entryX=0.5;entryY=0;entryDx=0;entryDy=0;fontColor=#FFFFFF;endArrow=block;endFill=1;strokeColor=#FFFFFF;exitX=0;exitY=0.5;exitDx=0;exitDy=0;" edge="1" parent="WIyWlLk6GJQsqaUBKTNV-1" source="EBYmS5xXXLun_0fUrUWN-45" target="zkfFHV4jXpPFQw0GAbJ--17">
          <mxGeometry relative="1" as="geometry" />
        </mxCell>
        <mxCell id="EBYmS5xXXLun_0fUrUWN-66" style="edgeStyle=none;rounded=0;orthogonalLoop=1;jettySize=auto;html=1;entryX=0.5;entryY=0;entryDx=0;entryDy=0;fontColor=#FFFFFF;endArrow=block;endFill=1;strokeColor=#FFFFFF;exitX=1;exitY=0.5;exitDx=0;exitDy=0;" edge="1" parent="WIyWlLk6GJQsqaUBKTNV-1" source="EBYmS5xXXLun_0fUrUWN-45" target="EBYmS5xXXLun_0fUrUWN-9">
          <mxGeometry relative="1" as="geometry" />
        </mxCell>
        <mxCell id="EBYmS5xXXLun_0fUrUWN-41" value="Event" style="swimlane;fontStyle=0;align=center;verticalAlign=top;childLayout=stackLayout;horizontal=1;startSize=26;horizontalStack=0;resizeParent=1;resizeLast=0;collapsible=1;marginBottom=0;rounded=0;shadow=0;strokeWidth=1;fontColor=#FFFFFF;strokeColor=#FFFFFF;fillColor=none;" vertex="1" parent="WIyWlLk6GJQsqaUBKTNV-1">
          <mxGeometry x="565" y="213" width="167" height="242" as="geometry">
            <mxRectangle x="550" y="140" width="160" height="26" as="alternateBounds" />
          </mxGeometry>
        </mxCell>
        <mxCell id="EBYmS5xXXLun_0fUrUWN-43" value="code: string" style="text;align=left;verticalAlign=top;spacingLeft=4;spacingRight=4;overflow=hidden;rotatable=0;points=[[0,0.5],[1,0.5]];portConstraint=eastwest;rounded=0;shadow=0;html=0;fontColor=#FFFFFF;" vertex="1" parent="EBYmS5xXXLun_0fUrUWN-41">
          <mxGeometry y="26" width="167" height="26" as="geometry" />
        </mxCell>
        <mxCell id="EBYmS5xXXLun_0fUrUWN-44" value="name: string" style="text;align=left;verticalAlign=top;spacingLeft=4;spacingRight=4;overflow=hidden;rotatable=0;points=[[0,0.5],[1,0.5]];portConstraint=eastwest;rounded=0;shadow=0;html=0;fontColor=#FFFFFF;" vertex="1" parent="EBYmS5xXXLun_0fUrUWN-41">
          <mxGeometry y="52" width="167" height="26" as="geometry" />
        </mxCell>
        <mxCell id="EBYmS5xXXLun_0fUrUWN-42" value="trafficPosition: string" style="text;align=left;verticalAlign=top;spacingLeft=4;spacingRight=4;overflow=hidden;rotatable=0;points=[[0,0.5],[1,0.5]];portConstraint=eastwest;rounded=0;shadow=0;html=0;fontColor=#FFFFFF;" vertex="1" parent="EBYmS5xXXLun_0fUrUWN-41">
          <mxGeometry y="78" width="167" height="26" as="geometry" />
        </mxCell>
        <mxCell id="EBYmS5xXXLun_0fUrUWN-45" value="atomics: AtomicMeasure[]" style="text;align=left;verticalAlign=top;spacingLeft=4;spacingRight=4;overflow=hidden;rotatable=0;points=[[0,0.5],[1,0.5]];portConstraint=eastwest;rounded=0;shadow=0;html=0;fontColor=#FFFFFF;" vertex="1" parent="EBYmS5xXXLun_0fUrUWN-41">
          <mxGeometry y="104" width="167" height="26" as="geometry" />
        </mxCell>
        <mxCell id="EBYmS5xXXLun_0fUrUWN-46" value="dim: Dim[]" style="text;align=left;verticalAlign=top;spacingLeft=4;spacingRight=4;overflow=hidden;rotatable=0;points=[[0,0.5],[1,0.5]];portConstraint=eastwest;rounded=0;shadow=0;html=0;fontColor=#FFFFFF;" vertex="1" parent="EBYmS5xXXLun_0fUrUWN-41">
          <mxGeometry y="130" width="167" height="26" as="geometry" />
        </mxCell>
        <mxCell id="EBYmS5xXXLun_0fUrUWN-47" value="" style="line;html=1;strokeWidth=1;align=left;verticalAlign=middle;spacingTop=-1;spacingLeft=3;spacingRight=3;rotatable=0;labelPosition=right;points=[];portConstraint=eastwest;fontColor=#FFFFFF;strokeColor=#FFFFFF;" vertex="1" parent="EBYmS5xXXLun_0fUrUWN-41">
          <mxGeometry y="156" width="167" height="8" as="geometry" />
        </mxCell>
        <mxCell id="EBYmS5xXXLun_0fUrUWN-48" value="set(): Event" style="text;align=left;verticalAlign=top;spacingLeft=4;spacingRight=4;overflow=hidden;rotatable=0;points=[[0,0.5],[1,0.5]];portConstraint=eastwest;fontColor=#FFFFFF;" vertex="1" parent="EBYmS5xXXLun_0fUrUWN-41">
          <mxGeometry y="164" width="167" height="26" as="geometry" />
        </mxCell>
        <mxCell id="EBYmS5xXXLun_0fUrUWN-49" value="setAtomics(): Event" style="text;align=left;verticalAlign=top;spacingLeft=4;spacingRight=4;overflow=hidden;rotatable=0;points=[[0,0.5],[1,0.5]];portConstraint=eastwest;fontColor=#FFFFFF;" vertex="1" parent="EBYmS5xXXLun_0fUrUWN-41">
          <mxGeometry y="190" width="167" height="26" as="geometry" />
        </mxCell>
        <mxCell id="EBYmS5xXXLun_0fUrUWN-50" value="setDim(): Event" style="text;align=left;verticalAlign=top;spacingLeft=4;spacingRight=4;overflow=hidden;rotatable=0;points=[[0,0.5],[1,0.5]];portConstraint=eastwest;fontColor=#FFFFFF;" vertex="1" parent="EBYmS5xXXLun_0fUrUWN-41">
          <mxGeometry y="216" width="167" height="26" as="geometry" />
        </mxCell>
        <mxCell id="EBYmS5xXXLun_0fUrUWN-63" value="" style="group" vertex="1" connectable="0" parent="WIyWlLk6GJQsqaUBKTNV-1">
          <mxGeometry x="727" y="447" width="645" height="372" as="geometry" />
        </mxCell>
        <mxCell id="EBYmS5xXXLun_0fUrUWN-0" value="AbstractMeasure" style="swimlane;fontStyle=2;align=center;verticalAlign=top;childLayout=stackLayout;horizontal=1;startSize=26;horizontalStack=0;resizeParent=1;resizeLast=0;collapsible=1;marginBottom=0;rounded=0;shadow=0;strokeWidth=1;fontColor=#FFFFFF;strokeColor=#FFFFFF;fillColor=none;" vertex="1" parent="EBYmS5xXXLun_0fUrUWN-63">
          <mxGeometry x="249" y="-22" width="167" height="78" as="geometry">
            <mxRectangle x="550" y="140" width="160" height="26" as="alternateBounds" />
          </mxGeometry>
        </mxCell>
        <mxCell id="EBYmS5xXXLun_0fUrUWN-64" value="measureType: Enum" style="text;align=left;verticalAlign=top;spacingLeft=4;spacingRight=4;overflow=hidden;rotatable=0;points=[[0,0.5],[1,0.5]];portConstraint=eastwest;fontColor=#FFFFFF;fontStyle=2" vertex="1" parent="EBYmS5xXXLun_0fUrUWN-0">
          <mxGeometry y="26" width="167" height="26" as="geometry" />
        </mxCell>
        <mxCell id="EBYmS5xXXLun_0fUrUWN-1" value="measureType: Enum" style="text;align=left;verticalAlign=top;spacingLeft=4;spacingRight=4;overflow=hidden;rotatable=0;points=[[0,0.5],[1,0.5]];portConstraint=eastwest;fontColor=#FFFFFF;fontStyle=2" vertex="1" parent="EBYmS5xXXLun_0fUrUWN-0">
          <mxGeometry y="52" width="167" height="26" as="geometry" />
        </mxCell>
        <mxCell id="EBYmS5xXXLun_0fUrUWN-51" style="rounded=0;orthogonalLoop=1;jettySize=auto;html=1;fontColor=#FFFFFF;strokeColor=#FFFFFF;endArrow=block;endFill=0;exitX=0.477;exitY=0.006;exitDx=0;exitDy=0;exitPerimeter=0;" edge="1" parent="EBYmS5xXXLun_0fUrUWN-63" source="EBYmS5xXXLun_0fUrUWN-9">
          <mxGeometry relative="1" as="geometry">
            <mxPoint x="327.1428571428571" y="61.292410714285666" as="targetPoint" />
          </mxGeometry>
        </mxCell>
        <mxCell id="EBYmS5xXXLun_0fUrUWN-9" value="AtomicMeasure" style="swimlane;fontStyle=0;align=center;verticalAlign=top;childLayout=stackLayout;horizontal=1;startSize=26;horizontalStack=0;resizeParent=1;resizeLast=0;collapsible=1;marginBottom=0;rounded=0;shadow=0;strokeWidth=1;fontColor=#FFFFFF;strokeColor=#FFFFFF;fillColor=none;" vertex="1" parent="EBYmS5xXXLun_0fUrUWN-63">
          <mxGeometry y="130" width="167" height="195" as="geometry">
            <mxRectangle x="550" y="140" width="160" height="26" as="alternateBounds" />
          </mxGeometry>
        </mxCell>
        <mxCell id="EBYmS5xXXLun_0fUrUWN-12" value="measureType: ATOMIC" style="text;align=left;verticalAlign=top;spacingLeft=4;spacingRight=4;overflow=hidden;rotatable=0;points=[[0,0.5],[1,0.5]];portConstraint=eastwest;rounded=0;shadow=0;html=0;fontColor=#FFFFFF;" vertex="1" parent="EBYmS5xXXLun_0fUrUWN-9">
          <mxGeometry y="26" width="167" height="26" as="geometry" />
        </mxCell>
        <mxCell id="EBYmS5xXXLun_0fUrUWN-13" value="code: string" style="text;align=left;verticalAlign=top;spacingLeft=4;spacingRight=4;overflow=hidden;rotatable=0;points=[[0,0.5],[1,0.5]];portConstraint=eastwest;rounded=0;shadow=0;html=0;fontColor=#FFFFFF;" vertex="1" parent="EBYmS5xXXLun_0fUrUWN-9">
          <mxGeometry y="52" width="167" height="26" as="geometry" />
        </mxCell>
        <mxCell id="EBYmS5xXXLun_0fUrUWN-14" value="name: string" style="text;align=left;verticalAlign=top;spacingLeft=4;spacingRight=4;overflow=hidden;rotatable=0;points=[[0,0.5],[1,0.5]];portConstraint=eastwest;rounded=0;shadow=0;html=0;fontColor=#FFFFFF;" vertex="1" parent="EBYmS5xXXLun_0fUrUWN-9">
          <mxGeometry y="78" width="167" height="26" as="geometry" />
        </mxCell>
        <mxCell id="EBYmS5xXXLun_0fUrUWN-19" value="measureGroup: object" style="text;align=left;verticalAlign=top;spacingLeft=4;spacingRight=4;overflow=hidden;rotatable=0;points=[[0,0.5],[1,0.5]];portConstraint=eastwest;rounded=0;shadow=0;html=0;fontColor=#FFFFFF;" vertex="1" parent="EBYmS5xXXLun_0fUrUWN-9">
          <mxGeometry y="104" width="167" height="26" as="geometry" />
        </mxCell>
        <mxCell id="EBYmS5xXXLun_0fUrUWN-20" value="event: Event" style="text;align=left;verticalAlign=top;spacingLeft=4;spacingRight=4;overflow=hidden;rotatable=0;points=[[0,0.5],[1,0.5]];portConstraint=eastwest;rounded=0;shadow=0;html=0;fontColor=#FFFFFF;" vertex="1" parent="EBYmS5xXXLun_0fUrUWN-9">
          <mxGeometry y="130" width="167" height="26" as="geometry" />
        </mxCell>
        <mxCell id="EBYmS5xXXLun_0fUrUWN-15" value="" style="line;html=1;strokeWidth=1;align=left;verticalAlign=middle;spacingTop=-1;spacingLeft=3;spacingRight=3;rotatable=0;labelPosition=right;points=[];portConstraint=eastwest;fontColor=#FFFFFF;strokeColor=#FFFFFF;" vertex="1" parent="EBYmS5xXXLun_0fUrUWN-9">
          <mxGeometry y="156" width="167" height="8" as="geometry" />
        </mxCell>
        <mxCell id="EBYmS5xXXLun_0fUrUWN-16" value="set(): AtomicMeasure" style="text;align=left;verticalAlign=top;spacingLeft=4;spacingRight=4;overflow=hidden;rotatable=0;points=[[0,0.5],[1,0.5]];portConstraint=eastwest;fontColor=#FFFFFF;" vertex="1" parent="EBYmS5xXXLun_0fUrUWN-9">
          <mxGeometry y="164" width="167" height="26" as="geometry" />
        </mxCell>
        <mxCell id="EBYmS5xXXLun_0fUrUWN-52" style="edgeStyle=none;rounded=0;orthogonalLoop=1;jettySize=auto;html=1;fontColor=#FFFFFF;endArrow=block;endFill=0;strokeColor=#FFFFFF;" edge="1" parent="EBYmS5xXXLun_0fUrUWN-63" source="EBYmS5xXXLun_0fUrUWN-21">
          <mxGeometry relative="1" as="geometry">
            <mxPoint x="328" y="67" as="targetPoint" />
          </mxGeometry>
        </mxCell>
        <mxCell id="EBYmS5xXXLun_0fUrUWN-21" value="DerivedMeasure" style="swimlane;fontStyle=0;align=center;verticalAlign=top;childLayout=stackLayout;horizontal=1;startSize=26;horizontalStack=0;resizeParent=1;resizeLast=0;collapsible=1;marginBottom=0;rounded=0;shadow=0;strokeWidth=1;fontColor=#FFFFFF;strokeColor=#FFFFFF;fillColor=none;" vertex="1" parent="EBYmS5xXXLun_0fUrUWN-63">
          <mxGeometry x="247" y="130" width="167" height="242" as="geometry">
            <mxRectangle x="550" y="140" width="160" height="26" as="alternateBounds" />
          </mxGeometry>
        </mxCell>
        <mxCell id="EBYmS5xXXLun_0fUrUWN-22" value="measureType: DERIVED" style="text;align=left;verticalAlign=top;spacingLeft=4;spacingRight=4;overflow=hidden;rotatable=0;points=[[0,0.5],[1,0.5]];portConstraint=eastwest;rounded=0;shadow=0;html=0;fontColor=#FFFFFF;" vertex="1" parent="EBYmS5xXXLun_0fUrUWN-21">
          <mxGeometry y="26" width="167" height="26" as="geometry" />
        </mxCell>
        <mxCell id="EBYmS5xXXLun_0fUrUWN-23" value="code: string" style="text;align=left;verticalAlign=top;spacingLeft=4;spacingRight=4;overflow=hidden;rotatable=0;points=[[0,0.5],[1,0.5]];portConstraint=eastwest;rounded=0;shadow=0;html=0;fontColor=#FFFFFF;" vertex="1" parent="EBYmS5xXXLun_0fUrUWN-21">
          <mxGeometry y="52" width="167" height="26" as="geometry" />
        </mxCell>
        <mxCell id="EBYmS5xXXLun_0fUrUWN-24" value="name: string" style="text;align=left;verticalAlign=top;spacingLeft=4;spacingRight=4;overflow=hidden;rotatable=0;points=[[0,0.5],[1,0.5]];portConstraint=eastwest;rounded=0;shadow=0;html=0;fontColor=#FFFFFF;" vertex="1" parent="EBYmS5xXXLun_0fUrUWN-21">
          <mxGeometry y="78" width="167" height="26" as="geometry" />
        </mxCell>
        <mxCell id="EBYmS5xXXLun_0fUrUWN-26" value="filterCondition: object" style="text;align=left;verticalAlign=top;spacingLeft=4;spacingRight=4;overflow=hidden;rotatable=0;points=[[0,0.5],[1,0.5]];portConstraint=eastwest;rounded=0;shadow=0;html=0;fontColor=#FFFFFF;" vertex="1" parent="EBYmS5xXXLun_0fUrUWN-21">
          <mxGeometry y="104" width="167" height="26" as="geometry" />
        </mxCell>
        <mxCell id="EBYmS5xXXLun_0fUrUWN-25" value="atomicEntity:AtomicMeasure" style="text;align=left;verticalAlign=top;spacingLeft=4;spacingRight=4;overflow=hidden;rotatable=0;points=[[0,0.5],[1,0.5]];portConstraint=eastwest;rounded=0;shadow=0;html=0;fontColor=#FFFFFF;" vertex="1" parent="EBYmS5xXXLun_0fUrUWN-21">
          <mxGeometry y="130" width="167" height="26" as="geometry" />
        </mxCell>
        <mxCell id="EBYmS5xXXLun_0fUrUWN-27" value="" style="line;html=1;strokeWidth=1;align=left;verticalAlign=middle;spacingTop=-1;spacingLeft=3;spacingRight=3;rotatable=0;labelPosition=right;points=[];portConstraint=eastwest;fontColor=#FFFFFF;strokeColor=#FFFFFF;" vertex="1" parent="EBYmS5xXXLun_0fUrUWN-21">
          <mxGeometry y="156" width="167" height="8" as="geometry" />
        </mxCell>
        <mxCell id="EBYmS5xXXLun_0fUrUWN-28" value="set(): DerivedMeasure" style="text;align=left;verticalAlign=top;spacingLeft=4;spacingRight=4;overflow=hidden;rotatable=0;points=[[0,0.5],[1,0.5]];portConstraint=eastwest;fontColor=#FFFFFF;" vertex="1" parent="EBYmS5xXXLun_0fUrUWN-21">
          <mxGeometry y="164" width="167" height="26" as="geometry" />
        </mxCell>
        <mxCell id="EBYmS5xXXLun_0fUrUWN-30" value="setName():  DerivedMeasure" style="text;align=left;verticalAlign=top;spacingLeft=4;spacingRight=4;overflow=hidden;rotatable=0;points=[[0,0.5],[1,0.5]];portConstraint=eastwest;fontColor=#FFFFFF;" vertex="1" parent="EBYmS5xXXLun_0fUrUWN-21">
          <mxGeometry y="190" width="167" height="26" as="geometry" />
        </mxCell>
        <mxCell id="EBYmS5xXXLun_0fUrUWN-29" value="setFilter(): DerivedMeasure" style="text;align=left;verticalAlign=top;spacingLeft=4;spacingRight=4;overflow=hidden;rotatable=0;points=[[0,0.5],[1,0.5]];portConstraint=eastwest;fontColor=#FFFFFF;" vertex="1" parent="EBYmS5xXXLun_0fUrUWN-21">
          <mxGeometry y="216" width="167" height="26" as="geometry" />
        </mxCell>
        <mxCell id="EBYmS5xXXLun_0fUrUWN-53" style="edgeStyle=none;rounded=0;orthogonalLoop=1;jettySize=auto;html=1;fontColor=#FFFFFF;endArrow=block;endFill=0;strokeColor=#FFFFFF;exitX=0.5;exitY=0;exitDx=0;exitDy=0;" edge="1" parent="EBYmS5xXXLun_0fUrUWN-63" source="EBYmS5xXXLun_0fUrUWN-31">
          <mxGeometry relative="1" as="geometry">
            <mxPoint x="335.1428571428571" y="63.149553571428555" as="targetPoint" />
          </mxGeometry>
        </mxCell>
        <mxCell id="EBYmS5xXXLun_0fUrUWN-31" value="CombineMeasure" style="swimlane;fontStyle=0;align=center;verticalAlign=top;childLayout=stackLayout;horizontal=1;startSize=26;horizontalStack=0;resizeParent=1;resizeLast=0;collapsible=1;marginBottom=0;rounded=0;shadow=0;strokeWidth=1;fontColor=#FFFFFF;strokeColor=#FFFFFF;fillColor=none;" vertex="1" parent="EBYmS5xXXLun_0fUrUWN-63">
          <mxGeometry x="478" y="130" width="167" height="242" as="geometry">
            <mxRectangle x="550" y="140" width="160" height="26" as="alternateBounds" />
          </mxGeometry>
        </mxCell>
        <mxCell id="EBYmS5xXXLun_0fUrUWN-32" value="measureType: COMBINE" style="text;align=left;verticalAlign=top;spacingLeft=4;spacingRight=4;overflow=hidden;rotatable=0;points=[[0,0.5],[1,0.5]];portConstraint=eastwest;rounded=0;shadow=0;html=0;fontColor=#FFFFFF;" vertex="1" parent="EBYmS5xXXLun_0fUrUWN-31">
          <mxGeometry y="26" width="167" height="26" as="geometry" />
        </mxCell>
        <mxCell id="EBYmS5xXXLun_0fUrUWN-33" value="code: string" style="text;align=left;verticalAlign=top;spacingLeft=4;spacingRight=4;overflow=hidden;rotatable=0;points=[[0,0.5],[1,0.5]];portConstraint=eastwest;rounded=0;shadow=0;html=0;fontColor=#FFFFFF;" vertex="1" parent="EBYmS5xXXLun_0fUrUWN-31">
          <mxGeometry y="52" width="167" height="26" as="geometry" />
        </mxCell>
        <mxCell id="EBYmS5xXXLun_0fUrUWN-34" value="name: string" style="text;align=left;verticalAlign=top;spacingLeft=4;spacingRight=4;overflow=hidden;rotatable=0;points=[[0,0.5],[1,0.5]];portConstraint=eastwest;rounded=0;shadow=0;html=0;fontColor=#FFFFFF;" vertex="1" parent="EBYmS5xXXLun_0fUrUWN-31">
          <mxGeometry y="78" width="167" height="26" as="geometry" />
        </mxCell>
        <mxCell id="EBYmS5xXXLun_0fUrUWN-35" value="expression: string" style="text;align=left;verticalAlign=top;spacingLeft=4;spacingRight=4;overflow=hidden;rotatable=0;points=[[0,0.5],[1,0.5]];portConstraint=eastwest;rounded=0;shadow=0;html=0;fontColor=#FFFFFF;" vertex="1" parent="EBYmS5xXXLun_0fUrUWN-31">
          <mxGeometry y="104" width="167" height="26" as="geometry" />
        </mxCell>
        <mxCell id="EBYmS5xXXLun_0fUrUWN-36" value="derivedEntity: Array[DerivedMeasure]&#xa;" style="text;align=left;verticalAlign=top;spacingLeft=4;spacingRight=4;overflow=hidden;rotatable=0;points=[[0,0.5],[1,0.5]];portConstraint=eastwest;rounded=0;shadow=0;html=0;fontColor=#FFFFFF;" vertex="1" parent="EBYmS5xXXLun_0fUrUWN-31">
          <mxGeometry y="130" width="167" height="26" as="geometry" />
        </mxCell>
        <mxCell id="EBYmS5xXXLun_0fUrUWN-37" value="" style="line;html=1;strokeWidth=1;align=left;verticalAlign=middle;spacingTop=-1;spacingLeft=3;spacingRight=3;rotatable=0;labelPosition=right;points=[];portConstraint=eastwest;fontColor=#FFFFFF;strokeColor=#FFFFFF;" vertex="1" parent="EBYmS5xXXLun_0fUrUWN-31">
          <mxGeometry y="156" width="167" height="8" as="geometry" />
        </mxCell>
        <mxCell id="EBYmS5xXXLun_0fUrUWN-38" value="set(): CombineMeasure" style="text;align=left;verticalAlign=top;spacingLeft=4;spacingRight=4;overflow=hidden;rotatable=0;points=[[0,0.5],[1,0.5]];portConstraint=eastwest;fontColor=#FFFFFF;" vertex="1" parent="EBYmS5xXXLun_0fUrUWN-31">
          <mxGeometry y="164" width="167" height="26" as="geometry" />
        </mxCell>
        <mxCell id="EBYmS5xXXLun_0fUrUWN-39" value="setName(): CombineMeasure" style="text;align=left;verticalAlign=top;spacingLeft=4;spacingRight=4;overflow=hidden;rotatable=0;points=[[0,0.5],[1,0.5]];portConstraint=eastwest;fontColor=#FFFFFF;" vertex="1" parent="EBYmS5xXXLun_0fUrUWN-31">
          <mxGeometry y="190" width="167" height="26" as="geometry" />
        </mxCell>
        <mxCell id="EBYmS5xXXLun_0fUrUWN-40" value="setExpression(): CombineMeasure" style="text;align=left;verticalAlign=top;spacingLeft=4;spacingRight=4;overflow=hidden;rotatable=0;points=[[0,0.5],[1,0.5]];portConstraint=eastwest;fontColor=#FFFFFF;" vertex="1" parent="EBYmS5xXXLun_0fUrUWN-31">
          <mxGeometry y="216" width="167" height="26" as="geometry" />
        </mxCell>
        <mxCell id="EBYmS5xXXLun_0fUrUWN-54" style="edgeStyle=none;rounded=0;orthogonalLoop=1;jettySize=auto;html=1;entryX=1;entryY=0.5;entryDx=0;entryDy=0;fontColor=#FFFFFF;endArrow=block;endFill=1;strokeColor=#FFFFFF;" edge="1" parent="EBYmS5xXXLun_0fUrUWN-63">
          <mxGeometry relative="1" as="geometry">
            <mxPoint x="478" y="265.26440677966093" as="sourcePoint" />
            <mxPoint x="414" y="267" as="targetPoint" />
          </mxGeometry>
        </mxCell>
        <mxCell id="EBYmS5xXXLun_0fUrUWN-58" style="edgeStyle=none;rounded=0;orthogonalLoop=1;jettySize=auto;html=1;exitX=0;exitY=0.5;exitDx=0;exitDy=0;entryX=1;entryY=0.5;entryDx=0;entryDy=0;fontColor=#FFFFFF;endArrow=block;endFill=1;strokeColor=#FFFFFF;" edge="1" parent="EBYmS5xXXLun_0fUrUWN-63">
          <mxGeometry relative="1" as="geometry">
            <mxPoint x="247" y="269" as="sourcePoint" />
            <mxPoint x="167" y="269" as="targetPoint" />
          </mxGeometry>
        </mxCell>
        <mxCell id="EBYmS5xXXLun_0fUrUWN-59" value="1" style="text;html=1;strokeColor=none;fillColor=none;align=center;verticalAlign=middle;whiteSpace=wrap;rounded=0;fontColor=#FFFFFF;" vertex="1" parent="EBYmS5xXXLun_0fUrUWN-63">
          <mxGeometry x="447" y="245" width="40" height="20" as="geometry" />
        </mxCell>
        <mxCell id="EBYmS5xXXLun_0fUrUWN-60" value="2" style="text;html=1;strokeColor=none;fillColor=none;align=center;verticalAlign=middle;whiteSpace=wrap;rounded=0;fontColor=#FFFFFF;" vertex="1" parent="EBYmS5xXXLun_0fUrUWN-63">
          <mxGeometry x="407" y="245" width="40" height="20" as="geometry" />
        </mxCell>
        <mxCell id="EBYmS5xXXLun_0fUrUWN-61" value="1" style="text;html=1;strokeColor=none;fillColor=none;align=center;verticalAlign=middle;whiteSpace=wrap;rounded=0;fontColor=#FFFFFF;" vertex="1" parent="EBYmS5xXXLun_0fUrUWN-63">
          <mxGeometry x="155" y="245" width="40" height="20" as="geometry" />
        </mxCell>
        <mxCell id="EBYmS5xXXLun_0fUrUWN-62" value="1" style="text;html=1;strokeColor=none;fillColor=none;align=center;verticalAlign=middle;whiteSpace=wrap;rounded=0;fontColor=#FFFFFF;" vertex="1" parent="EBYmS5xXXLun_0fUrUWN-63">
          <mxGeometry x="217" y="248" width="40" height="20" as="geometry" />
        </mxCell>
        <mxCell id="EBYmS5xXXLun_0fUrUWN-70" value="1..*" style="text;html=1;strokeColor=none;fillColor=none;align=center;verticalAlign=middle;whiteSpace=wrap;rounded=0;fontColor=#FFFFFF;" vertex="1" parent="EBYmS5xXXLun_0fUrUWN-63">
          <mxGeometry x="46" y="104" width="40" height="20" as="geometry" />
        </mxCell>
        <mxCell id="EBYmS5xXXLun_0fUrUWN-67" value="1" style="text;html=1;strokeColor=none;fillColor=none;align=center;verticalAlign=middle;whiteSpace=wrap;rounded=0;fontColor=#FFFFFF;" vertex="1" parent="WIyWlLk6GJQsqaUBKTNV-1">
          <mxGeometry x="520" y="317" width="40" height="20" as="geometry" />
        </mxCell>
        <mxCell id="EBYmS5xXXLun_0fUrUWN-68" value="1..*" style="text;html=1;strokeColor=none;fillColor=none;align=center;verticalAlign=middle;whiteSpace=wrap;rounded=0;fontColor=#FFFFFF;" vertex="1" parent="WIyWlLk6GJQsqaUBKTNV-1">
          <mxGeometry x="404" y="541" width="40" height="20" as="geometry" />
        </mxCell>
        <mxCell id="EBYmS5xXXLun_0fUrUWN-69" value="1" style="text;html=1;strokeColor=none;fillColor=none;align=center;verticalAlign=middle;whiteSpace=wrap;rounded=0;fontColor=#FFFFFF;" vertex="1" parent="WIyWlLk6GJQsqaUBKTNV-1">
          <mxGeometry x="732" y="317" width="40" height="20" as="geometry" />
        </mxCell>
      </root>
    </mxGraphModel>
  </diagram>
</mxfile>
